<svg width="80" height="81" viewBox="0 0 80 81" fill="none" xmlns="http://www.w3.org/2000/svg">
<g clip-path="url(#clip0_1_70)">
<g clip-path="url(#clip1_1_70)">
<path d="M40.5 7.97998L65.151 13.458C65.817 13.606 66.413 13.977 66.84 14.509C67.267 15.042 67.5 15.704 67.5 16.386V46.347C67.5 49.31 66.768 52.228 65.37 54.84C63.971 57.452 61.95 59.679 59.484 61.323L40.5 73.98L21.516 61.323C19.051 59.68 17.029 57.453 15.631 54.841C14.233 52.229 13.501 49.313 13.5 46.35V16.386C13.5 15.704 13.733 15.042 14.16 14.509C14.587 13.977 15.183 13.606 15.849 13.458L40.5 7.97998ZM40.5 25.98C39.179 25.98 37.895 26.416 36.848 27.22C35.8 28.024 35.047 29.151 34.705 30.427C34.363 31.703 34.451 33.056 34.957 34.276C35.462 35.496 36.356 36.516 37.5 37.176V49.98H43.5L43.503 37.176C44.647 36.515 45.541 35.496 46.046 34.275C46.552 33.055 46.64 31.702 46.298 30.426C45.956 29.15 45.202 28.022 44.154 27.219C43.105 26.415 41.821 25.979 40.5 25.98Z" fill="#EBCF8F" fill-opacity="0.26"/>
</g>
</g>
<defs>
<clipPath id="clip0_1_70">
<rect width="55" height="66" fill="white" transform="translate(13 7.97998)"/>
</clipPath>
<clipPath id="clip1_1_70">
<rect width="55" height="66" fill="white" transform="translate(13 7.97998)"/>
</clipPath>
</defs>
</svg>
