<svg width="712" height="366" viewBox="0 0 712 366" fill="none" xmlns="http://www.w3.org/2000/svg">
<g opacity="0.35">
<g clip-path="url(#clip0_1_56)">
<path d="M724.5 202.5C724.5 202.5 673.5 178 666 174.5C658.5 171 648 172 640.5 172.5C633 173 526 200.5 490.5 228.5C455 256.5 362.5 333.5 306.5 347C250.5 360.5 159.5 366 159.5 366H-0.5" stroke="#25245A" stroke-width="3"/>
<path d="M723 189.5C723 189.5 709 199 695.5 199.5C682 200 668.5 193 661 189.5C653.5 186 640.5 178.5 633 179C625.5 179.5 538.5 196.5 489 208.5C439.5 220.5 363 257 298 266C233 275 161 274.5 161 274.5H-0.5" stroke="#635CFE" stroke-width="3"/>
<path d="M724.5 174.5C724.5 174.5 705 188 681.5 190C658 192 614.5 189 594 187.5C573.5 186 569.5 184.5 557 184C544.5 183.5 160 183.5 160 183.5H-4.5" stroke="#CEB9FF" stroke-width="3"/>
<path d="M721.5 193C721.5 193 707 177.981 693.5 173.5C680 169.019 666.5 174.481 659 177.981C651.5 181.481 613.5 186 606 185.5C598.5 185 536 178.5 490.5 155C445 131.5 362.5 107 297.5 98C232.5 89 159 92.981 159 92.981H-2.5" stroke="#FFD879" stroke-width="3"/>
<path d="M724.5 163.475C724.5 163.475 673.5 187.975 666 191.475C658.5 194.975 650.5 200.533 635 199.5C619.5 198.467 526 165.475 490.5 137.475C455 109.475 362.5 32.475 306.5 18.975C250.5 5.47504 159.5 -0.0249634 159.5 -0.0249634H-2.5" stroke="#6ADBFF" stroke-width="3"/>
</g>
</g>
<defs>
<clipPath id="clip0_1_56">
<rect width="712" height="366" fill="white" transform="matrix(-1 0 0 -1 712 366)"/>
</clipPath>
</defs>
</svg>
