<svg width="712" height="366" viewBox="0 0 712 366" fill="none" xmlns="http://www.w3.org/2000/svg">
<g clip-path="url(#clip0_1_36)">
<path d="M-12.5 163.5C-12.5 163.5 38.5 188 46 191.5C53.5 195 64 194 71.5 193.5C79 193 186 165.5 221.5 137.5C257 109.5 349.5 32.5 405.5 19C461.5 5.5 552.5 0 552.5 0H712.5" stroke="#25245A" stroke-width="3"/>
<path d="M-11 176.5C-11 176.5 3 167 16.5 166.5C30 166 43.5 173 51 176.5C58.5 180 71.5 187.5 79 187C86.5 186.5 173.5 169.5 223 157.5C272.5 145.5 349 109 414 100C479 90.9999 551 91.4999 551 91.4999H712.5" stroke="#635CFE" stroke-width="3"/>
<path d="M-12.5 191.5C-12.5 191.5 7 178 30.5 176C54 174 97.5 177 118 178.5C138.5 180 142.5 181.5 155 182C167.5 182.5 552 182.5 552 182.5H716.5" stroke="#CEB9FF" stroke-width="3"/>
<path d="M-9.5 173C-9.5 173 5 188.019 18.5 192.5C32 196.981 45.5 191.519 53 188.019C60.5 184.519 98.5 180 106 180.5C113.5 181 176 187.5 221.5 211C267 234.5 349.5 259 414.5 268C479.5 277 553 273.019 553 273.019H714.5" stroke="#FFD879" stroke-width="3"/>
<path d="M-12.5 202.525C-12.5 202.525 38.5 178.025 46 174.525C53.5 171.025 61.5 165.467 77 166.5C92.5 167.533 186 200.525 221.5 228.525C257 256.525 349.5 333.525 405.5 347.025C461.5 360.525 552.5 366.025 552.5 366.025H714.5" stroke="#6ADBFF" stroke-width="3"/>
</g>
<defs>
<clipPath id="clip0_1_36">
<rect width="712" height="366" fill="white"/>
</clipPath>
</defs>
</svg>
